<?xml version="1.0" encoding="utf-8"?>
<svg viewBox="39.1222 -22.3044 431.953 512" xmlns="http://www.w3.org/2000/svg" xmlns:bx="https://boxy-svg.com">
  <defs>
    <style bx:fonts="Anuphan">@import url(https://fonts.googleapis.com/css2?family=Anuphan%3Aital%2Cwght%400%2C100%3B0%2C200%3B0%2C300%3B0%2C400%3B0%2C500%3B0%2C600%3B0%2C700&amp;display=swap);</style>
  </defs>
  <path style="fill: rgb(83, 152, 208);" d="M 447.169 78.38 L 447.169 490.308 C 447.169 517.855 424.657 540.368 397.109 540.368 L 65.232 540.368 C 63.706 540.368 62.179 540.292 60.73 540.139 C 59.204 540.063 57.754 539.834 56.304 539.529 C 55.541 539.453 54.778 539.3 54.091 539.071 C 49.894 538.155 45.85 536.629 42.186 534.645 C 42.11 534.645 42.11 534.569 42.11 534.569 C 41.881 534.493 41.652 534.416 41.499 534.264 C 40.049 533.5 38.675 532.661 37.378 531.745 C 35.776 530.753 34.249 529.608 32.876 528.311 C 31.884 527.547 30.968 526.632 30.053 525.716 C 28.298 524.037 26.695 522.13 25.245 520.145 C 24.787 519.535 24.329 518.848 23.871 518.237 C 22.803 516.711 21.81 515.109 21.048 513.506 C 20.285 512.208 19.674 510.835 19.14 509.462 C 18.529 508.088 17.995 506.638 17.537 505.112 C 17.156 504.12 16.926 503.204 16.698 502.136 C 16.469 501.297 16.24 500.381 16.087 499.465 C 15.934 498.701 15.858 497.863 15.706 497.099 C 15.706 496.946 15.63 496.793 15.63 496.642 C 15.401 494.581 15.249 492.444 15.249 490.309 L 15.249 207.728 L 194.579 28.396 L 397.109 28.396 C 402.985 28.396 408.632 29.387 413.821 31.371 C 428.015 36.332 439.233 47.626 444.193 61.743 C 445.185 64.186 445.872 66.704 446.33 69.299 C 446.635 70.748 446.788 72.275 446.941 73.725 C 447.093 75.25 447.169 76.854 447.169 78.38 Z" transform="matrix(-1, 0, 0, 1, 486.29119110107416, -50.672359466552734)"/>
  <path style="fill: rgb(62, 103, 126);" d="M 144.522 207.716 C 172.045 207.716 194.564 185.197 194.564 157.674 L 194.564 28.368 L 15.216 207.716 L 144.522 207.716 Z" transform="matrix(-1, 0, 0, 1, 486.29119110107416, -50.672359466552734)"/>
  <path style="opacity:0.06;fill:#000405;" d="M 447.169 78.38 L 447.169 490.308 C 447.169 517.855 424.657 540.368 397.109 540.368 L 65.232 540.368 C 63.706 540.368 62.179 540.292 60.73 540.139 C 59.204 540.063 57.754 539.834 56.304 539.529 C 55.541 539.453 54.778 539.3 54.091 539.071 C 49.894 538.155 45.85 536.629 42.186 534.645 C 42.11 534.645 42.11 534.569 42.11 534.569 C 41.881 534.493 41.652 534.416 41.499 534.264 C 40.049 533.5 38.675 532.661 37.378 531.745 C 35.776 530.753 34.249 529.608 32.876 528.311 C 31.884 527.547 30.968 526.632 30.053 525.716 C 28.298 524.037 26.695 522.13 25.245 520.145 C 24.787 519.535 24.329 518.848 23.871 518.237 C 22.803 516.711 21.81 515.109 21.048 513.506 C 20.285 512.208 19.674 510.835 19.14 509.462 C 18.529 508.088 17.995 506.638 17.537 505.112 C 17.156 504.12 16.926 503.204 16.698 502.136 C 16.469 501.297 16.24 500.381 16.087 499.465 L 220.449 295.103 L 232.201 283.427 L 242.121 273.431 L 242.197 273.431 L 446.33 69.299 C 446.635 70.748 446.788 72.275 446.941 73.725 C 447.093 75.25 447.169 76.854 447.169 78.38 Z" transform="matrix(-1, 0, 0, 1, 486.29119110107416, -50.672359466552734)"/>
  <path style="opacity:0.1;fill:#000405;" d="M 446.711 478.266 L 446.711 489.56 C 446.711 517.033 424.199 539.544 396.727 539.544 L 64.85 539.544 C 53.861 539.544 43.635 535.958 35.394 529.852 C 31.121 526.799 27.457 523.06 24.329 518.787 C 20.59 513.597 17.766 507.721 16.24 501.311 C 16.011 500.623 15.859 499.862 15.706 499.098 C 15.706 498.945 15.63 498.792 15.63 498.641 L 18.148 496.2 C 18.453 496.962 18.759 497.726 19.064 498.489 C 26.924 515.964 44.552 528.327 64.851 528.327 L 396.729 528.327 C 424.2 528.327 446.711 505.815 446.711 478.266 Z" transform="matrix(-1, 0, 0, 1, 486.29119110107416, -50.672359466552734)"/>
  <text style="fill: rgb(255, 255, 255); font-family: Anuphan; font-size: 8.7px; font-weight: 700; paint-order: fill; stroke-width: 0px; white-space: pre; text-anchor: middle;" x="-6.74" y="1.623" transform="matrix(10.135725021362305, 0, 0, 10.135725021362305, 323.4132919311523, 273.1877784729004)">SENSOR<tspan x="-6.739999771118164" dy="1.2em">​</tspan>DATA</text>
</svg>